<?xml version="1.0" encoding="utf-8"?>
<!-- Generator: Adobe Illustrator 17.0.0, SVG Export Plug-In . SVG Version: 6.00 Build 0)  -->
<!DOCTYPE svg PUBLIC "-//W3C//DTD SVG 1.1//EN" "http://www.w3.org/Graphics/SVG/1.1/DTD/svg11.dtd">
<svg version="1.1" id="Layer_1" xmlns="http://www.w3.org/2000/svg" xmlns:xlink="http://www.w3.org/1999/xlink" x="0px" y="0px"
	 width="612px" height="792px" viewBox="0 0 612 792" enable-background="new 0 0 612 792" xml:space="preserve">
<g>
	<defs>
		<rect id="SVGID_1_" x="128" y="220.333" width="351.667" height="351.667"/>
	</defs>
	<clipPath id="SVGID_2_">
		<use xlink:href="#SVGID_1_"  overflow="visible"/>
	</clipPath>
	<path clip-path="url(#SVGID_2_)" fill="#FFFFFF" d="M347.382,233.642c89.616,24.013,142.988,116.456,118.976,206.072
		c-24.013,89.617-116.456,142.989-206.072,118.976c-89.617-24.012-142.989-116.456-118.976-206.072
		C165.322,263.002,257.766,209.629,347.382,233.642"/>
	<path clip-path="url(#SVGID_2_)" fill="none" stroke="#9A9999" stroke-width="15.114" d="M347.382,233.642
		c89.616,24.013,142.988,116.456,118.976,206.072c-24.013,89.617-116.456,142.989-206.072,118.976
		c-89.617-24.012-142.989-116.456-118.976-206.072C165.322,263.002,257.766,209.629,347.382,233.642z"/>
	<path clip-path="url(#SVGID_2_)" fill="none" stroke="#9A9999" stroke-width="2.826" d="M340.193,255.196l3.819-14.623
		 M333.151,253.562l3.071-14.799 M326.037,252.277l2.317-14.935 M318.866,251.346l1.56-15.033 M311.656,250.776l0.803-15.092
		 M304.424,250.566l0.048-15.114 M297.189,250.721l-0.704-15.098 M289.968,251.237l-1.448-15.044 M282.78,252.115l-2.185-14.955
		 M275.642,253.351l-2.912-14.83 M268.573,254.943l-3.628-14.672 M261.59,256.884l-4.332-14.479 M254.796,259.141l-5.193-14.194
		 M248.036,261.764l-5.866-13.929 M241.412,264.717l-6.522-13.634 M234.942,267.995l-7.164-13.308 M228.641,271.587l-7.789-12.952
		 M222.525,275.486l-8.397-12.567 M216.609,279.68l-8.986-12.152 M210.978,284.105l-9.696-11.594 M205.505,288.859l-10.241-11.115
		 M200.277,293.88l-10.765-10.609 M195.305,299.152l-11.266-10.075 M190.604,304.664l-11.743-9.514 M186.186,310.402l-12.196-8.927
		 M182.062,316.353l-12.621-8.315 M178.243,322.5l-13.018-7.679 M174.738,328.829l-13.385-7.019 M171.555,335.324l-13.72-6.338
		 M168.702,341.969l-14.022-5.638 M166.184,348.747l-14.29-4.921 M164.004,355.639l-14.522-4.19 M162.163,362.63l-14.715-3.446
		 M160.668,369.703l-14.871-2.695 M159.525,376.841l-14.989-1.939 M158.738,384.031l-15.067-1.182 M158.312,391.251l-15.108-0.425
		 M158.249,398.487l-15.11,0.328 M158.549,405.719l-15.075,1.077 M159.212,412.93l-15.004,1.818 M160.235,420.099l-14.897,2.55
		 M161.616,427.211l-14.755,3.272 M163.35,434.247l-14.58,3.982 M165.432,441.191l-14.371,4.679 M167.856,448.024l-14.131,5.362
		 M170.615,454.73l-13.858,6.031 M173.663,461.212l-13.475,6.846 M177.069,467.617l-13.134,7.479 M180.786,473.844l-12.763,8.096
		 M184.806,479.88l-12.363,8.694 M189.118,485.711l-11.934,9.273 M193.713,491.32l-11.477,9.834 M198.578,496.695l-10.991,10.374
		 M203.704,501.82l-10.478,10.893 M209.007,506.621l-9.798,11.508 M214.612,511.21l-9.224,11.973 M220.438,515.51l-8.624,12.412
		 M226.469,519.511l-7.999,12.824 M232.692,523.206l-7.351,13.206 M239.09,526.581l-6.681,13.557 M245.648,529.633l-5.991,13.876
		 M252.347,532.352l-5.281,14.161 M259.173,534.735l-4.557,14.41 M266.199,536.806l-4.005,14.573 M273.226,538.5l-3.259,14.759
		 M280.328,539.849l-2.506,14.904 M287.49,540.844l-1.75,15.013 M294.694,541.48l-0.992,15.081 M301.923,541.756l-0.236,15.112
		 M309.159,541.668l0.516,15.105 M316.384,541.219l1.263,15.061 M323.579,540.406l2.002,14.981 M330.727,539.235l2.732,14.865
		 M337.721,537.729l3.628,14.672 M344.722,535.854l4.332,14.479 M351.623,533.633l5.022,14.255 M358.406,531.072l5.699,13.999
		 M365.056,528.178l6.36,13.711 M371.556,524.961l7.006,13.392 M377.889,521.426l7.635,13.044 M384.041,517.583l8.247,12.666
		 M389.921,513.494l8.986,12.152 M395.664,509.065l9.556,11.709 M401.179,504.359l10.107,11.238 M406.454,499.388l10.636,10.738
		 M411.474,494.16l11.143,10.211 M416.226,488.691l11.626,9.657 M420.697,482.995l12.085,9.076 M424.876,477.081l12.517,8.47
		 M428.752,470.969l12.922,7.84 M432.315,464.671l13.296,7.186 M435.557,458.204l13.64,6.51 M438.47,451.585l13.951,5.815
		 M441.05,444.831l14.226,5.102 M443.291,437.957l14.467,4.373 M445.192,430.983l14.671,3.633 M446.75,423.924l14.837,2.883
		 M447.958,416.797l14.963,2.128 M448.81,409.615l15.051,1.371 M449.301,402.398l15.102,0.614 M449.431,395.164l15.113-0.14
		 M449.197,387.93l15.088-0.89 M448.601,380.716l15.025-1.633 M447.643,373.538l14.928-2.368 M446.328,366.414l14.794-3.092
		 M444.659,359.362l14.627-3.805 M442.641,352.4l14.426-4.505 M440.279,345.546l14.194-5.193 M437.615,338.898l13.858-6.031
		 M434.589,332.307l13.555-6.685 M431.241,325.874l13.222-7.322 M427.58,319.612l12.859-7.943 M423.616,313.539l12.465-8.546
		 M419.356,307.669l12.045-9.13 M414.813,302.018l11.594-9.696 M410.058,296.665l10.991-10.374 M404.981,291.493l10.478-10.892
		 M399.655,286.579l9.937-11.387 M394.092,281.941l9.369-11.859 M388.306,277.587l8.776-12.305 M382.31,273.529l8.158-12.723
		 M376.121,269.777l7.516-13.113 M369.754,266.344l6.851-13.472 M363.224,263.233l6.165-13.799 M356.549,260.453l5.46-14.093
		 M349.745,258.009l4.739-14.351 M342.83,255.902l4.004-14.574"/>
</g>
<polygon fill="#7A7A7A" points="207.346,508.825 286.268,383.19 319.088,411.221 "/>
<polygon fill="#629DCA" points="398.355,285.182 319.433,410.817 286.613,382.786 "/>
<g>
	<defs>
		<rect id="SVGID_3_" x="128" y="220.333" width="351.667" height="351.667"/>
	</defs>
	<clipPath id="SVGID_4_">
		<use xlink:href="#SVGID_3_"  overflow="visible"/>
	</clipPath>
	<path clip-path="url(#SVGID_4_)" fill="none" stroke="#9A9999" stroke-width="2.826" d="M340.193,255.196l3.819-14.623
		 M333.151,253.562l3.071-14.799 M326.037,252.277l2.317-14.935 M318.866,251.346l1.56-15.033 M311.656,250.776l0.803-15.092
		 M304.424,250.566l0.048-15.114 M297.189,250.721l-0.704-15.098 M289.968,251.237l-1.448-15.044 M282.78,252.115l-2.185-14.955
		 M275.642,253.351l-2.912-14.83 M268.573,254.943l-3.628-14.672 M261.59,256.884l-4.332-14.479 M254.796,259.141l-5.193-14.194
		 M248.036,261.764l-5.866-13.929 M241.412,264.717l-6.522-13.634 M234.942,267.995l-7.164-13.308 M228.641,271.587l-7.789-12.952
		 M222.525,275.486l-8.397-12.567 M216.609,279.68l-8.986-12.152 M210.978,284.105l-9.696-11.594 M205.505,288.859l-10.241-11.115
		 M200.277,293.88l-10.765-10.609 M195.305,299.152l-11.266-10.075 M190.604,304.664l-11.743-9.514 M186.186,310.402l-12.196-8.927
		 M182.062,316.353l-12.621-8.315 M178.243,322.5l-13.018-7.679 M174.738,328.829l-13.385-7.019 M171.555,335.324l-13.72-6.338
		 M168.702,341.969l-14.022-5.638 M166.184,348.747l-14.29-4.921 M164.004,355.639l-14.522-4.19 M162.163,362.63l-14.715-3.446
		 M160.668,369.703l-14.871-2.695 M159.525,376.841l-14.989-1.939 M158.738,384.031l-15.067-1.182 M158.312,391.251l-15.108-0.425
		 M158.249,398.487l-15.11,0.328 M158.549,405.719l-15.075,1.077 M159.212,412.93l-15.004,1.818 M160.235,420.099l-14.897,2.55
		 M161.616,427.211l-14.755,3.272 M163.35,434.247l-14.58,3.982 M165.432,441.191l-14.371,4.679 M167.856,448.024l-14.131,5.362
		 M170.615,454.73l-13.858,6.031 M173.663,461.212l-13.475,6.846 M177.069,467.617l-13.134,7.479 M180.786,473.844l-12.763,8.096
		 M184.806,479.88l-12.363,8.694 M189.118,485.711l-11.934,9.273 M193.713,491.32l-11.477,9.834 M198.578,496.695l-10.991,10.374
		 M203.704,501.82l-10.478,10.893 M209.007,506.621l-9.798,11.508 M214.612,511.21l-9.224,11.973 M220.438,515.51l-8.624,12.412
		 M226.469,519.511l-7.999,12.824 M232.692,523.206l-7.351,13.206 M239.09,526.581l-6.681,13.557 M245.648,529.633l-5.991,13.876
		 M252.347,532.352l-5.281,14.161 M259.173,534.735l-4.557,14.41 M266.199,536.806l-4.005,14.573 M273.226,538.5l-3.259,14.759
		 M280.328,539.849l-2.506,14.904 M287.49,540.844l-1.75,15.013 M294.694,541.48l-0.992,15.081 M301.923,541.756l-0.236,15.112
		 M309.159,541.668l0.516,15.105 M316.384,541.219l1.263,15.061 M323.579,540.406l2.002,14.981 M330.727,539.235l2.732,14.865
		 M337.721,537.729l3.628,14.672 M344.722,535.854l4.332,14.479 M351.623,533.633l5.022,14.255 M358.406,531.072l5.699,13.999
		 M365.056,528.178l6.36,13.711 M371.556,524.961l7.006,13.392 M377.889,521.426l7.635,13.044 M384.041,517.583l8.247,12.666
		 M389.921,513.494l8.986,12.152 M395.664,509.065l9.556,11.709 M401.179,504.359l10.107,11.238 M406.454,499.388l10.636,10.738
		 M411.474,494.16l11.143,10.211 M416.226,488.691l11.626,9.657 M420.697,482.995l12.085,9.076 M424.876,477.081l12.517,8.47
		 M428.752,470.969l12.922,7.84 M432.315,464.671l13.296,7.186 M435.557,458.204l13.64,6.51 M438.47,451.585l13.951,5.815
		 M441.05,444.831l14.226,5.102 M443.291,437.957l14.467,4.373 M445.192,430.983l14.671,3.633 M446.75,423.924l14.837,2.883
		 M447.958,416.797l14.963,2.128 M448.81,409.615l15.051,1.371 M449.301,402.398l15.102,0.614 M449.431,395.164l15.113-0.14
		 M449.197,387.93l15.088-0.89 M448.601,380.716l15.025-1.633 M447.643,373.538l14.928-2.368 M446.328,366.414l14.794-3.092
		 M444.659,359.362l14.627-3.805 M442.641,352.4l14.426-4.505 M440.279,345.546l14.194-5.193 M437.615,338.898l13.858-6.031
		 M434.589,332.307l13.555-6.685 M431.241,325.874l13.222-7.322 M427.58,319.612l12.859-7.943 M423.616,313.539l12.465-8.546
		 M419.356,307.669l12.045-9.13 M414.813,302.018l11.594-9.696 M410.058,296.665l10.991-10.374 M404.981,291.493l10.478-10.892
		 M399.655,286.579l9.937-11.387 M394.092,281.941l9.369-11.859 M388.306,277.587l8.776-12.305 M382.31,273.529l8.158-12.723
		 M376.121,269.777l7.516-13.113 M369.754,266.344l6.851-13.472 M363.224,263.233l6.165-13.799 M356.549,260.453l5.46-14.093
		 M349.745,258.009l4.739-14.351 M342.83,255.902l4.004-14.574"/>
	<path clip-path="url(#SVGID_4_)" fill="#7A7A7A" d="M302.833,418.332c11.83,0,21.42-9.59,21.42-21.42
		c0-11.83-9.59-21.42-21.42-21.42s-21.42,9.59-21.42,21.42C281.413,408.742,291.003,418.332,302.833,418.332"/>
	<circle clip-path="url(#SVGID_4_)" fill="none" stroke="#7A7A7A" stroke-width="9" cx="302.833" cy="396.912" r="21.42"/>
	<path clip-path="url(#SVGID_4_)" fill="none" stroke="#FFFFFF" stroke-width="4.5" d="M302.833,420.582
		c13.052,0,23.67-10.618,23.67-23.67s-10.618-23.67-23.67-23.67c-13.052,0-23.67,10.618-23.67,23.67
		S289.781,420.582,302.833,420.582z"/>
	<path clip-path="url(#SVGID_4_)" fill="none" stroke="#FFFFFF" stroke-width="1.503" d="M302.833,414.584
		c9.744,0,17.672-7.927,17.672-17.671c0-9.745-7.928-17.672-17.672-17.672s-17.671,7.927-17.671,17.672
		C285.162,406.657,293.089,414.584,302.833,414.584z"/>
</g>
</svg>
