<?xml version="1.0" encoding="utf-8"?>
<!-- Generator: Adobe Illustrator 17.0.0, SVG Export Plug-In . SVG Version: 6.00 Build 0)  -->
<!DOCTYPE svg PUBLIC "-//W3C//DTD SVG 1.1//EN" "http://www.w3.org/Graphics/SVG/1.1/DTD/svg11.dtd">
<svg version="1.1" id="Layer_1" xmlns="http://www.w3.org/2000/svg" xmlns:xlink="http://www.w3.org/1999/xlink" x="0px" y="0px"
	 width="612px" height="792px" viewBox="0 0 612 792" enable-background="new 0 0 612 792" xml:space="preserve">
<g>
	<path d="M53.315,392.822h7.486c2.965,0,5.025-1.055,5.025-4.02c0-3.164-2.214-4.219-5.025-4.219h-7.486V392.822z M53.315,378.554
		h7.234c1.609,0,3.817-0.854,3.817-3.416c0-2.613-1.858-3.466-3.817-3.466h-7.234V378.554z M43.971,364.437h16.778
		c6.181-0.1,12.962,1.508,12.962,8.994c0,3.214-1.908,5.826-4.721,7.232c3.819,1.105,6.178,4.422,6.178,8.492
		c0,8.539-6.278,11.15-13.964,11.15H43.971V364.437z"/>
	<polygon points="94.461,386.944 94.461,400.308 85.119,400.308 85.119,386.944 72.057,364.438 82.657,364.438 89.79,379.005 
		96.923,364.438 107.525,364.438 	"/>
	<path d="M140.734,385.488c0,10.398-4.774,15.574-15.625,15.574c-10.852,0-15.623-5.176-15.623-15.574v-21.05h9.343v21.603
		c0,4.621,1.707,6.983,6.28,6.983c4.573,0,6.279-2.362,6.279-6.983v-21.603h9.346V385.488z"/>
	<rect x="155.61" y="364.405" width="8.542" height="35.939"/>
	<path d="M238.573,380.89c-0.803-0.855-2.109-1.055-3.465-1.055c-3.418,0-6.08,3.214-6.08,6.529v0.903L238.573,380.89z
		 M231.339,391.943c0.904,1.306,2.714,1.857,4.222,1.857c2.762,0,5.377-1.306,7.485-3.014l4.122,6.031
		c-3.418,2.36-7.288,4.018-11.758,4.018c-8.241,0-13.919-7.185-13.919-13.415c0-7.688,6.129-14.118,13.566-14.118
		c5.426,0,10.5,3.115,12.915,7.938L231.339,391.943z"/>
	<path d="M296.148,380.89c-0.802-0.855-2.109-1.055-3.466-1.055c-3.416,0-6.079,3.214-6.079,6.529v0.903L296.148,380.89z
		 M288.915,391.943c0.904,1.306,2.712,1.857,4.219,1.857c2.765,0,5.377-1.306,7.489-3.014l4.117,6.031
		c-3.416,2.36-7.283,4.018-11.756,4.018c-8.24,0-13.919-7.185-13.919-13.415c0-7.688,6.13-14.118,13.566-14.118
		c5.427,0,10.502,3.115,12.914,7.938L288.915,391.943z"/>
	<path d="M378.646,380.89c-0.805-0.855-2.113-1.055-3.467-1.055c-3.418,0-6.084,3.214-6.084,6.529v0.903L378.646,380.89z
		 M371.412,391.943c0.9,1.306,2.713,1.857,4.217,1.857c2.768,0,5.377-1.306,7.484-3.014l4.123,6.031
		c-3.416,2.36-7.285,4.018-11.76,4.018c-8.238,0-13.916-7.185-13.916-13.415c0-7.688,6.129-14.118,13.565-14.118
		c5.428,0,10.504,3.115,12.916,7.938L371.412,391.943z"/>
	<path d="M396.666,377.221h0.1c2.014-3.017,4.574-3.919,6.736-3.919c7.086,0,9.445,4.521,9.445,10.953v16.088h-7.84v-15.535
		c0-3.015-1.555-4.471-3.92-4.471c-2.359,0-3.916,1.456-3.916,4.471v15.535h-7.838v-26.238l7.232-0.148V377.221z"/>
	<path d="M174.328,377.221h0.102c2.009-3.017,4.572-3.919,6.732-3.919c7.085,0,9.445,4.521,9.445,10.953v16.088h-7.839v-15.535
		c0-3.015-1.556-4.471-3.92-4.471c-2.359,0-3.917,1.456-3.917,4.471v15.535h-7.839v-26.238l7.235-0.148V377.221z"/>
	<path d="M314.188,377.221h0.102c2.012-3.017,4.572-3.919,6.734-3.919c7.084,0,9.443,4.521,9.443,10.953v16.088h-7.836v-15.535
		c0-3.015-1.557-4.471-3.92-4.471c-2.361,0-3.918,1.456-3.918,4.471v15.535h-7.838v-26.238l7.232-0.148V377.221z"/>
	<path d="M462.357,374.66c-1.959-1.71-3.467-2.614-6.131-2.614c-1.508,0-3.764,0.904-3.764,2.714c0,5.477,15.424,1.909,15.424,14.57
		c0,7.74-6.029,11.508-13.213,11.508c-4.273,0-8.693-1.258-11.963-4.07l5.129-6.533c1.608,1.861,3.918,2.765,6.483,2.765
		c1.756,0,4.52-0.855,4.52-3.067c0-5.375-15.422-2.158-15.422-14.52c0-6.832,6.328-10.651,12.557-10.651
		c3.971,0,7.99,1.457,11.055,3.969L462.357,374.66z"/>
	<path d="M465.434,380.707l-0.029-6.531h4.152v-6.043l7.836-2.096v8.139h4.473v6.531h-4.473v9.046c0,2.562,1.957,3.265,4.17,3.265
		c0.699,0,1.707-0.15,2.059-0.301l-0.033,7.738c-0.35,0.048-3.031,0.101-3.436,0.101c-6.93,0-10.596-3.317-10.596-10.2v-9.648
		H465.434z"/>
	<path d="M413.463,380.707l-0.029-6.531h4.148v-6.043l7.84-2.096v8.139h4.473v6.531h-4.473v9.046c0,2.562,1.959,3.265,4.172,3.265
		c0.697,0,1.707-0.15,2.057-0.301l-0.033,7.738c-0.354,0.048-3.031,0.101-3.434,0.101c-6.936,0-10.602-3.317-10.602-10.2v-9.648
		H413.463z"/>
	<path d="M500.096,373.957h7.838v26.389h-7.236v-3.83H500.6c-1.508,3.416-4.576,4.32-6.736,4.32c-7.082,0-9.443-4.52-9.443-10.955
		v-15.924h7.84v15.371c0,3.018,1.557,4.473,3.916,4.473c2.361,0,3.92-1.455,3.92-4.473V373.957z"/>
	<path d="M345.869,393.8c3.516,0,6.279-3.115,6.279-6.731c0-3.617-2.764-6.732-6.279-6.732c-3.52,0-6.283,3.114-6.283,6.732
		C339.586,390.685,342.35,393.8,345.869,393.8 M351.846,364.406h8.057l0.031,35.874l-7.584,0.064v-3.224h-0.098
		c-1.459,2.71-4.324,3.718-7.34,3.718c-7.385,0-13.16-6.031-13.16-13.417c0-7.485,5.475-14.118,13.16-14.118
		c2.463,0,5.229,0.902,6.934,2.613V364.406z"/>
	<path d="M206.162,393.8c3.518,0,6.281-3.115,6.281-6.731c0-3.617-2.763-6.732-6.281-6.732c-3.518,0-6.279,3.114-6.279,6.732
		C199.882,390.685,202.644,393.8,206.162,393.8 M212.142,364.406h8.053l0.031,35.874l-7.582,0.064v-3.224h-0.1
		c-1.457,2.71-4.32,3.718-7.335,3.718c-7.386,0-13.165-6.031-13.165-13.417c0-7.485,5.477-14.118,13.165-14.118
		c2.462,0,5.223,0.902,6.933,2.613V364.406z"/>
	<path d="M263.588,380.173c-3.516,0-6.28,3.115-6.28,6.734c0,3.617,2.764,6.731,6.28,6.731c3.518,0,6.279-3.114,6.279-6.731
		C269.867,383.289,267.106,380.173,263.588,380.173 M257.608,410.304h-8.055l-0.029-36.607l7.585-0.064v3.227h0.098
		c1.458-2.715,4.322-3.721,7.336-3.721c7.385,0,13.164,6.031,13.164,13.418c0,7.484-5.475,14.117-13.164,14.117
		c-2.462,0-5.226-0.904-6.935-2.614V410.304z"/>
	<path d="M523.201,393.8c3.52,0,6.279-3.115,6.279-6.731c0-3.617-2.76-6.732-6.279-6.732c-3.516,0-6.279,3.114-6.279,6.732
		C516.922,390.685,519.685,393.8,523.201,393.8 M529.184,364.406h8.055l0.029,35.874l-7.582,0.064v-3.224h-0.102
		c-1.461,2.71-4.324,3.718-7.334,3.718c-7.389,0-13.168-6.031-13.168-13.417c0-7.485,5.478-14.118,13.168-14.118
		c2.459,0,5.225,0.902,6.934,2.613V364.406z"/>
	<polygon points="552.461,390.15 558.865,374.337 566.619,376.302 550.961,411.341 542.539,410.513 548.273,398.99 538.146,376.251 
		546.002,374.337 	"/>
	<path d="M310.99,418.353c0,2.731,0.516,4.859,1.553,6.384c1.035,1.523,2.469,2.288,4.299,2.288c1.83,0,3.264-0.765,4.301-2.288
		c1.035-1.525,1.553-3.652,1.553-6.384c0-2.742-0.518-4.873-1.553-6.397c-1.037-1.524-2.471-2.286-4.301-2.286
		c-1.83,0-3.264,0.762-4.299,2.286C311.506,413.48,310.99,415.611,310.99,418.353 M308.674,418.353c0-3.243,0.74-5.828,2.225-7.757
		c1.483-1.929,3.463-2.893,5.943-2.893s4.463,0.961,5.943,2.879c1.484,1.92,2.225,4.511,2.225,7.772c0,3.252-0.74,5.844-2.225,7.777
		c-1.48,1.934-3.463,2.899-5.943,2.899c-2.471,0-4.451-0.966-5.938-2.899C309.418,424.197,308.674,421.605,308.674,418.353"/>
	<polygon points="329.094,428.683 329.094,408.039 332.34,408.039 341.818,424.136 341.818,408.039 343.967,408.039 
		343.967,428.683 342.195,428.683 331.227,410.408 331.227,428.683 	"/>
	<polygon points="349.639,428.683 349.639,408.039 351.98,408.039 351.98,426.717 361.193,426.717 361.193,428.683 	"/>
	<rect x="364.512" y="408.039" width="2.311" height="20.642"/>
	<polygon points="372.514,428.683 372.514,408.039 375.76,408.039 385.238,424.136 385.238,408.039 387.385,408.039 
		387.385,428.683 385.613,428.683 374.643,410.408 374.643,428.683 	"/>
	<polygon points="392.916,428.683 392.916,408.039 405.1,408.039 405.1,409.99 395.189,409.99 395.189,416.89 402.213,416.89 
		402.213,418.798 395.189,418.798 395.189,426.717 405.586,426.717 405.586,428.683 	"/>
	<path d="M431.553,422.492c-0.5,2.176-1.357,3.811-2.572,4.899c-1.209,1.094-2.779,1.639-4.703,1.639
		c-2.535,0-4.494-0.928-5.875-2.78c-1.381-1.855-2.07-4.486-2.07-7.896c0-3.318,0.695-5.922,2.082-7.812
		c1.389-1.891,3.285-2.836,5.682-2.836c1.914,0,3.467,0.518,4.656,1.554c1.189,1.036,1.996,2.571,2.424,4.607l-2.076,0.542
		c-0.324-1.542-0.9-2.722-1.725-3.539c-0.832-0.817-1.855-1.228-3.068-1.228c-1.81,0-3.211,0.761-4.189,2.286
		c-0.98,1.525-1.469,3.695-1.469,6.508c0,2.752,0.496,4.877,1.49,6.373c0.994,1.496,2.402,2.242,4.225,2.242
		c1.348,0,2.465-0.434,3.35-1.305c0.889-0.866,1.473-2.103,1.75-3.713L431.553,422.492z"/>
	<path d="M435.887,418.353c0,2.731,0.52,4.859,1.555,6.384c1.039,1.523,2.469,2.288,4.301,2.288c1.83,0,3.262-0.765,4.303-2.288
		c1.035-1.525,1.553-3.652,1.553-6.384c0-2.742-0.518-4.873-1.553-6.397c-1.041-1.524-2.473-2.286-4.303-2.286
		c-1.832,0-3.262,0.762-4.301,2.286C436.406,413.48,435.887,415.611,435.887,418.353 M433.574,418.353
		c0-3.243,0.74-5.828,2.225-7.757c1.48-1.929,3.463-2.893,5.943-2.893c2.482,0,4.463,0.961,5.943,2.879
		c1.483,1.92,2.227,4.511,2.227,7.772c0,3.252-0.744,5.844-2.227,7.777c-1.48,1.934-3.461,2.899-5.943,2.899
		c-2.471,0-4.451-0.966-5.938-2.899C434.318,424.197,433.574,421.605,433.574,418.353"/>
	<path d="M453.939,408.039h2.242v13.311c0,0.929,0.043,1.631,0.127,2.099c0.08,0.469,0.223,0.89,0.416,1.261
		c0.383,0.742,0.975,1.318,1.787,1.73c0.807,0.406,1.754,0.611,2.842,0.611c1.106,0,2.061-0.205,2.869-0.611
		c0.807-0.412,1.404-0.988,1.783-1.73c0.197-0.391,0.338-0.828,0.42-1.316c0.084-0.488,0.127-1.293,0.127-2.418v-12.936h2.258
		v13.674c0,2.389-0.635,4.205-1.9,5.447c-1.27,1.246-3.121,1.87-5.557,1.87c-2.443,0-4.291-0.614-5.539-1.847
		c-1.252-1.23-1.875-3.055-1.875-5.471V408.039z"/>
	<path d="M480.072,409.962h-3.539v7.443h3.459c2.127,0,3.658-0.293,4.603-0.879c0.943-0.585,1.41-1.529,1.41-2.83
		c0-1.384-0.416-2.353-1.256-2.906C483.908,410.239,482.348,409.962,480.072,409.962 M474.287,428.683v-20.645h5.785
		c2.891,0,4.984,0.435,6.295,1.304c1.303,0.868,1.957,2.25,1.957,4.146c0,1.348-0.354,2.463-1.066,3.346
		c-0.711,0.883-1.785,1.527-3.215,1.937l4.851,9.913h-2.512l-4.543-9.369h-5.307v9.369H474.287z"/>
	<path d="M491.154,423.51l2.156-0.713c0.375,1.322,1.008,2.362,1.914,3.117c0.9,0.757,1.94,1.136,3.119,1.136
		c1.311,0,2.357-0.328,3.137-0.982c0.781-0.656,1.174-1.525,1.174-2.613c0-0.642-0.121-1.197-0.348-1.672
		c-0.234-0.475-0.584-0.87-1.049-1.186c-0.668-0.445-1.826-0.967-3.469-1.562c-0.59-0.213-1.027-0.375-1.324-0.486
		c-1.74-0.678-2.963-1.427-3.674-2.243c-0.711-0.818-1.068-1.851-1.068-3.095c0-1.664,0.553-2.998,1.65-4.002
		c1.105-1.004,2.568-1.504,4.402-1.504c1.598,0,2.953,0.432,4.06,1.297c1.109,0.863,1.908,2.112,2.389,3.746l-2.06,0.603
		c-0.334-1.218-0.895-2.145-1.686-2.781c-0.791-0.639-1.771-0.955-2.943-0.955c-1.104,0-1.984,0.303-2.641,0.912
		c-0.656,0.607-0.98,1.429-0.98,2.461c0,0.482,0.109,0.929,0.324,1.338c0.223,0.41,0.566,0.799,1.025,1.17
		c0.455,0.354,1.512,0.831,3.166,1.435c0.529,0.187,0.939,0.335,1.225,0.447c1.965,0.743,3.316,1.557,4.072,2.439
		c0.752,0.885,1.129,2.049,1.129,3.498c0,1.72-0.586,3.102-1.754,4.146c-1.164,1.047-2.711,1.569-4.645,1.569
		c-1.85,0-3.387-0.466-4.611-1.393C492.615,426.707,491.717,425.333,491.154,423.51"/>
	<polygon points="508.939,428.683 508.939,408.039 521.119,408.039 521.119,409.99 511.209,409.99 511.209,416.89 518.234,416.89 
		518.234,418.798 511.209,418.798 511.209,426.717 521.611,426.717 521.611,428.683 	"/>
	<path d="M523.435,423.51l2.158-0.713c0.371,1.322,1.008,2.362,1.91,3.117c0.902,0.757,1.941,1.136,3.123,1.136
		c1.308,0,2.355-0.328,3.137-0.982c0.781-0.656,1.174-1.525,1.174-2.613c0-0.642-0.121-1.197-0.356-1.672
		c-0.23-0.475-0.58-0.87-1.041-1.186c-0.672-0.445-1.826-0.967-3.473-1.562c-0.586-0.213-1.025-0.375-1.326-0.486
		c-1.736-0.678-2.961-1.427-3.674-2.243c-0.709-0.818-1.062-1.851-1.062-3.095c0-1.664,0.553-2.998,1.65-4.002
		c1.102-1.004,2.568-1.504,4.398-1.504c1.6,0,2.951,0.432,4.062,1.297c1.109,0.863,1.908,2.112,2.389,3.746l-2.062,0.603
		c-0.332-1.218-0.895-2.145-1.686-2.781c-0.789-0.639-1.77-0.955-2.939-0.955c-1.104,0-1.986,0.303-2.641,0.912
		c-0.656,0.607-0.986,1.429-0.986,2.461c0,0.482,0.111,0.929,0.33,1.338c0.217,0.41,0.559,0.799,1.023,1.17
		c0.455,0.354,1.51,0.831,3.166,1.435c0.531,0.187,0.938,0.335,1.225,0.447c1.961,0.743,3.318,1.557,4.072,2.439
		c0.75,0.885,1.129,2.049,1.129,3.498c0,1.72-0.584,3.102-1.75,4.146c-1.168,1.047-2.717,1.569-4.65,1.569
		c-1.85,0-3.389-0.466-4.613-1.393C524.9,426.707,524,425.333,523.435,423.51"/>
</g>
</svg>
